<svg xmlns="http://www.w3.org/2000/svg" viewBox="0 0 196.122 20.263"><path d="M100.529 0h.308a4.533 4.533 0 011.292.2 11.763 11.763 0 012.552 1.388 3.869 3.869 0 004.18.24 9.37 9.37 0 001.49-.76 3.081 3.081 0 014.24.07c.57.44 1.21.79 1.74 1.27a4.1 4.1 0 004.87.75 4.921 4.921 0 015.75.8 3.578 3.578 0 004 .75 3.742 3.742 0 013.82.84c2.33 2 4.85 1.9 7.55 1.08s5.33-1.91 8-2.94a14.373 14.373 0 0113.77 1.26c1.2.78 2.46 1.47 3.71 2.19a34.084 34.084 0 009.3 4 12.1 12.1 0 007.5-.55c1.44-.58 2.86-1.25 4.32-1.75 4-1.38 7 .71 7.2 5a21.825 21.825 0 01-.73 5.8 1.291 1.291 0 01-.17.44 12.128 12.128 0 01-3.76.07c-.26-.25-.05-.52 0-.77a17.329 17.329 0 00.63-4.89c-.09-1.91-.73-2.34-2.53-1.64a8.993 8.993 0 00-2 1c-2.93 2.06-6.21 2.12-9.54 1.65-4.43-.63-8.3-2.73-12.17-4.81-2-1.1-4.05-2.23-6.13-3.24a8.722 8.722 0 00-5.94-.58 44.79 44.79 0 00-7.43 2.65 21.176 21.176 0 01-6.28 1.84 9.5 9.5 0 01-6.47-1.65 3.856 3.856 0 00-3.16-.77 7.6 7.6 0 01-5.67-1.15 3 3 0 00-2.68-.26 8.9 8.9 0 01-7.1-.23 5.132 5.132 0 00-4.61 0 7.636 7.636 0 01-6.06.09 8.121 8.121 0 00-6.7.27 7.344 7.344 0 01-5.53.19 6.172 6.172 0 00-5.67.75c-2.37 1.64-5 1.16-7.51.34a6.683 6.683 0 00-6.52.85c-2 1.42-4.41 1.35-6.7.73a6.476 6.476 0 00-5.68.79c-2.61 1.76-5.6 1.34-8.49 1.12a11.493 11.493 0 00-5.17.72 17.029 17.029 0 01-7.8 1.41c-1.84-.16-3.61.53-5.39 1a137.278 137.278 0 01-29.61 4.6c-.76 0-2.551-.006-3.551-.006 1.364-.23 2.822-.442 4.077-.7a122.951 122.951 0 0028.074-7.841 16.451 16.451 0 017.14-1.22 10.242 10.242 0 004.55-.8 16.575 16.575 0 019.14-1.22 8.418 8.418 0 007.44-2.42 3.582 3.582 0 013.53-.94c1 .26 2.1.48 3.12.8a3.838 3.838 0 003.22-.4 27.886 27.886 0 003.47-2.33 3.454 3.454 0 013-.7 24.662 24.662 0 013.78 1.13 4.17 4.17 0 004.2-.4 8.743 8.743 0 001.2-.78 4.212 4.212 0 015.15-.74c3 1.48 5.62.87 8.13-1.06A2.654 2.654 0 01100.529 0z" fill="#7dc243"/><path d="M135.461 20.139a71.488 71.488 0 01-15.08-1.42 109.984 109.984 0 00-17.92-2.16 230.064 230.064 0 00-25.85.31c-9.12.5-18.22 1.29-27.32 2-5.21.42-10.42.92-15.65 1.06-.555.023-3.555.1-.46-.23 5-.75 10-1.51 15-2.25 6.82-1 13.67-1.77 20.54-2.39q13.421-1.2 26.9-1.3a125.217 125.217 0 0135.68 4.77l4.15 1.26c.254.09 1.329.356.01.35z" fill="#ffcc79"/><path d="M157.931 9.679c.11-1.53.87-1.29 1.77-.91a20.8 20.8 0 015.92 3.76c-2.55-.43-5.08 0-7.6-.1a4.079 4.079 0 01-4.015-4.144c0-.1.007-.191.015-.286 0-.36.15-.46.48-.52a2.692 2.692 0 013.12 1.64 5.351 5.351 0 00.31.56zm29.1 5.46a5.825 5.825 0 013.48-1.42c.89 0 1.08.66 1.08 1.4 0 .2-.06.41-.34.34-1.38-.33-2.8-.05-4.22-.32z" fill="#7dc243"/></svg>