<svg xmlns="http://www.w3.org/2000/svg" viewBox="0 0 230.665 48.747" height="184.243" width="871.816"><path d="M95.55 38.885h-6.016L83.67 16.557l-5.93 22.328h-6.15L63.525 9.863h5.457l5.816 23.085 6.35-23.085h5.51l5.969 23.222L98.15 9.863h5.268zm15.58-26.899c0 .784-.29 1.438-.867 1.961-.565.523-1.253.785-2.065.785s-1.5-.262-2.065-.785c-.564-.523-.846-1.177-.846-1.961 0-.798.282-1.466.846-2.003a2.93 2.93 0 012.065-.805c.84 0 1.535.275 2.086.826.564.55.846 1.211.846 1.982zm-5.442 26.898V17.969h4.876v20.915zm23.642.001V27.24c0-3.051-.946-5.683-4.02-5.683-3.058 0-4.997 2.753-4.997 5.538v11.79h-4.77V17.968h4.77v2.959h.083c1.583-2.45 3.868-3.311 6.855-3.311 2.243 0 3.978.552 5.203 1.983 1.239 1.432 1.782 3.607 1.782 6.525v12.759zm23.95 0v-2.693h-.083c-1.514 2.547-4.604 3.134-6.76 3.134-6.403 0-8.753-4.975-8.753-10.269 0-3.51.874-6.318 2.622-8.424 1.762-2.12 4.115-3.037 7.061-3.037 4.586 0 5.83 2.551 5.83 2.551h.083V8.043h4.947v30.842zm.041-11.918c0-2.527-1.623-5.397-5.05-5.397-3.92 0-5.443 3.411-5.443 7.343 0 3.432 1.437 6.548 5.17 6.6 3.66 0 5.294-3.49 5.323-6.373zm29.865 1.368c0 7.244-4.33 11.169-10.832 11.169-7.07 0-10.695-4.233-10.695-10.715 0-7.416 4.343-11.273 11.211-11.273 6.293 0 10.316 4.023 10.316 10.819zm-5.08.165c0-3.223-1.142-6.806-5.504-6.806-4.185 0-5.81 3.114-5.81 6.93 0 4.145 1.952 6.782 5.78 6.782 4.1 0 5.505-3.147 5.535-6.906zm31.25 10.385h-5.381l-4.113-15.137-4.413 15.137h-5.223l-6.085-20.851h5.107l3.973 16.199 4.644-16.2h4.79l4.14 16.158 3.874-16.157h4.68zm21.309-5.822c0 4.656-4.222 6.471-8.455 6.471-2.757 0-5.502-1.062-5.502-1.062V33.52s2.386 2.08 5.719 2.106c2.285 0 3.314-.72 3.314-2.093.057-1.1-.614-1.707-1.415-2.162-.55-.33-1.41-.737-2.58-1.218-1.377-.592-2.402-1.164-3.077-1.714a5.32 5.32 0 01-1.486-1.94c-.317-.744-.55-1.561-.55-2.552 0-3.76 3.135-6.417 8.148-6.417 3.313 0 4.748.813 4.748.813v4.705s-2.354-1.627-4.8-1.642c-1.753 0-3.079.638-3.102 2.082-.012 1.862 2.267 2.77 3.628 3.32 1.983.798 3.433 1.65 4.245 2.628.812.977 1.165 1.961 1.165 3.628zM0 0h23.105v23.105H0zm25.64 0h23.105v23.105H25.64zM0 25.642h23.105v23.105H0zm25.64 0h23.105v23.105H25.64z" fill="#0078d4"/></svg>